<svg id="Layer_3" enable-background="new 0 0 64 64" height="512" viewBox="0 0 64 64" width="512" xmlns="http://www.w3.org/2000/svg"><path d="m62 1h-60c-.552 0-1 .448-1 1v30c0 .552.448 1 1 1h60c.552 0 1-.448 1-1v-30c0-.552-.448-1-1-1zm-1 30h-58v-28h58z"/><path d="m46 53c.552 0 1-.448 1-1v-16c0-.552-.448-1-1-1h-28c-.552 0-1 .448-1 1v16c0 .552.448 1 1 1h11v4h-5v2h16v-2h-5v-4zm-27-16h26v14h-26zm14 20h-2v-4h2z"/><path d="m32 27c4.072 0 7.436-3.06 7.931-7h4.069v-2h-4.069c-.495-3.94-3.859-7-7.931-7s-7.436 3.06-7.931 7h-4.069v2h4.069c.495 3.94 3.859 7 7.931 7zm0-2c-2.967 0-5.431-2.167-5.91-5h11.82c-.479 2.833-2.943 5-5.91 5zm0-12c2.967 0 5.431 2.167 5.91 5h-11.82c.479-2.833 2.943-5 5.91-5z"/><path d="m56 11c1.654 0 3-1.346 3-3s-1.346-3-3-3-3 1.346-3 3 1.346 3 3 3zm0-4c.551 0 1 .449 1 1s-.449 1-1 1-1-.449-1-1 .449-1 1-1z"/><path d="m8 11c1.654 0 3-1.346 3-3s-1.346-3-3-3-3 1.346-3 3 1.346 3 3 3zm0-4c.551 0 1 .449 1 1s-.449 1-1 1-1-.449-1-1 .449-1 1-1z"/><path d="m8 19c1.654 0 3-1.346 3-3s-1.346-3-3-3-3 1.346-3 3 1.346 3 3 3zm0-4c.551 0 1 .449 1 1s-.449 1-1 1-1-.449-1-1 .449-1 1-1z"/><path d="m15 15c1.654 0 3-1.346 3-3s-1.346-3-3-3-3 1.346-3 3 1.346 3 3 3zm0-4c.551 0 1 .449 1 1s-.449 1-1 1-1-.449-1-1 .449-1 1-1z"/><path d="m41 39h2v2h-2z"/><path d="m41 43h2v2h-2z"/><path d="m41 47h2v2h-2z"/><path d="m38 39h-16c-.552 0-1 .448-1 1v8c0 .552.448 1 1 1h16c.552 0 1-.448 1-1v-8c0-.552-.448-1-1-1zm-1 8h-14v-6h14z"/><path d="m1 61h62v2h-62z"/><path d="m62 47h-12c-.552 0-1 .448-1 1v10c0 .552.448 1 1 1h12c.552 0 1-.448 1-1v-10c0-.552-.448-1-1-1zm-1 2v2h-10v-2zm-10 8v-4h10v4z"/><path d="m2 59h12c.552 0 1-.448 1-1v-10c0-.552-.448-1-1-1h-12c-.552 0-1 .448-1 1v10c0 .552.448 1 1 1zm1-2v-4h10v4zm10-8v2h-10v-2z"/></svg>